

<svg xmlns="http://www.w3.org/2000/svg" viewBox="0 0 514.7 99.21"><defs><style>.cls-1{fill:#fff;}.cls-2{fill:#fcc31e;}</style></defs><g id="Layer_2" data-name="Layer 2"><g id="Layer_1-2" data-name="Layer 1"><path class="cls-1" d="M338.44,0h28.77L333.47,99.21H304.7l-18.26-54L268,99.21H239.42l-6.79-20A56.62,56.62,0,0,0,211.74,0h22.52l19.36,59.93L273,0h26.74l19.36,59.93Z"/><polygon class="cls-1" points="391.71 79.48 434.01 79.48 434.01 99.21 369.57 99.21 369.57 0 391.71 0 391.71 79.48"/><path class="cls-1" d="M514.7,70.25A25.9,25.9,0,0,1,505,91.18q-9.67,8-25.45,8-22.79,0-41-16.88l12.76-15.64Q466.8,80.26,480,80.27q5.91,0,9.27-2.54a8.15,8.15,0,0,0,3.36-6.86A8,8,0,0,0,489,64q-3.57-2.54-14.13-5.15-16.76-4-24.49-10.36t-7.76-20q0-13.65,9.81-21.06T477,0a58.85,58.85,0,0,1,19.21,3.3,51.32,51.32,0,0,1,16.74,9.33L502.08,28.27q-12.49-9.46-25.8-9.47-5.36,0-8.44,2.54a8.26,8.26,0,0,0-3.09,6.72,7.61,7.61,0,0,0,3.78,6.66q3.77,2.46,17.42,5.82t21.2,10.09Q514.69,57.35,514.7,70.25Z"/><path class="cls-2" d="M207.65,5.82A49.26,49.26,0,0,0,184.33,0H134.72l.8.8,13.73,13.73c-1,1-2,2.1-2.94,3.21A49.6,49.6,0,1,0,207.65,5.82Zm-23.32,67.4a23.62,23.62,0,1,1,5.85-46.5,11,11,0,1,0,16.19,14.4,23.61,23.61,0,0,1-22,32.1Z"/><path class="cls-1" d="M86.67.18,47.36,43.87Q52.46,51,66.17,70.24T86.67,99H60.94L32,60l-9.9,11V99H0V.18H22.06V40.76L59.39.18Z"/><path class="cls-1" d="M139.54,14.83A56.49,56.49,0,0,0,133,25.51a19.19,19.19,0,0,0-10.39,7.63q-6.09,8.74-6.09,23.12V99.21H88.87V.06h27.64V13.14a45.59,45.59,0,0,1,11.85-9.48Z"/></g></g></svg>